<svg xmlns="http://www.w3.org/2000/svg" width="128" height="128" viewBox="0 0 128 128" fill="none">
  <defs>
    <linearGradient id="shield" x1="22" y1="12" x2="105" y2="116" gradientUnits="userSpaceOnUse">
      <stop stop-color="#8BFFD0"/>
      <stop offset="1" stop-color="#16C98B"/>
    </linearGradient>
  </defs>
  <path d="M64 7 112 25v34c0 32-19 54-48 68C35 113 16 91 16 59V25L64 7Z" fill="#10211E" stroke="url(#shield)" stroke-width="5" stroke-linejoin="round"/>
  <circle cx="64" cy="61" r="27" stroke="#C9FFE8" stroke-width="3.4"/>
  <path d="M37 61h54M64 34c9 7 13 16 13 27S73 81 64 88M64 34C55 41 51 50 51 61s4 20 13 27M64 34v54" stroke="#86F5C6" stroke-width="2.6" stroke-linecap="round"/>
  <path d="m51 63 8 8 18-20" stroke="#A4FFD7" stroke-width="4" stroke-linecap="round" stroke-linejoin="round"/>
</svg>
